<?xml version="1.0" encoding="utf-8"?>
<!-- Generator: Adobe Illustrator 16.0.0, SVG Export Plug-In . SVG Version: 6.00 Build 0)  -->
<!DOCTYPE svg PUBLIC "-//W3C//DTD SVG 1.1//EN" "http://www.w3.org/Graphics/SVG/1.1/DTD/svg11.dtd">
<svg version="1.1" id="arrow-circle-down" xmlns="http://www.w3.org/2000/svg" xmlns:xlink="http://www.w3.org/1999/xlink" x="0px"
	 y="0px" width="1080px" height="1080px" viewBox="417.819 0 1080 1080" enable-background="new 417.819 0 1080 1080"
	 xml:space="preserve">
<path fill="#000111" d="M420,540c0,298.266,241.734,540,540,540s540-241.734,540-540S1258.266,0,960,0
	C661.945,0.422,420.422,241.945,420,540z M1409.93,540c0,248.484-201.445,449.93-449.93,449.93S510.07,788.484,510.07,540
	S711.516,90.07,960,90.07C1208.484,90.281,1409.719,291.516,1409.93,540z"/>
<path fill="#000111" d="M777.117,540c0-32.906,12.023-64.758,33.75-89.438c13.078-14.766,25.734-28.688,35.016-37.758L972.867,283.5
	c16.664-18.352,45.141-19.828,63.492-3.164s19.828,45.141,3.164,63.492c-0.844,0.844-1.688,1.688-2.531,2.531L909.586,475.875
	c-8.438,8.438-19.828,21.094-31.43,34.172c-14.977,17.086-14.977,42.609,0,59.484c11.602,13.078,22.992,25.734,31.219,33.75
	l127.617,129.938c18.141,17.086,18.984,45.563,1.898,63.703s-45.563,18.984-63.703,1.898c-0.844-0.844-1.688-1.688-2.531-2.531
	L845.25,666.773c-9.07-9.07-21.516-22.781-34.594-37.547C789.141,604.758,777.117,572.906,777.117,540z"/>
</svg>
