<?xml version="1.0" encoding="utf-8"?>
<!-- Generator: Adobe Illustrator 25.2.3, SVG Export Plug-In . SVG Version: 6.00 Build 0)  -->
<svg version="1.1" id="Outline" xmlns="http://www.w3.org/2000/svg" xmlns:xlink="http://www.w3.org/1999/xlink" x="0px" y="0px"
	 viewBox="0 0 512 512" style="enable-background:new 0 0 512 512;" xml:space="preserve">
<path d="M411,256L411,256c-0.1-11.2-4.6-22-12.6-29.9l-91.5-91.7c-8.3-8.3-21.8-8.3-30.1,0c-8.4,8.3-8.4,21.8-0.1,30.2
	c0,0,0.1,0.1,0.1,0.1l70.2,70H123.7c-11.8,0-21.3,9.6-21.3,21.3c0,11.8,9.6,21.3,21.3,21.3H347l-70.2,70.2
	c-8.4,8.3-8.4,21.8-0.1,30.2c8.3,8.4,21.8,8.4,30.2,0.1l91.5-91.7C406.4,278.1,410.9,267.3,411,256z"/>
</svg>
