<?xml version="1.0" encoding="utf-8"?>
<!-- Generator: Adobe Illustrator 25.2.3, SVG Export Plug-In . SVG Version: 6.00 Build 0)  -->
<svg version="1.1" id="arrow-circle-down" xmlns="http://www.w3.org/2000/svg" xmlns:xlink="http://www.w3.org/1999/xlink" x="0px"
	 y="0px" viewBox="0 0 512 512" style="enable-background:new 0 0 512 512;" xml:space="preserve">
<style type="text/css">
	.st0{fill:#4D5AD6;}
</style>
<path class="st0" d="M0,256c0,141.4,114.6,256,256,256s256-114.6,256-256S397.4,0,256,0C114.7,0.2,0.2,114.7,0,256z M469.3,256
	c0,117.8-95.5,213.3-213.3,213.3S42.7,373.8,42.7,256S138.2,42.7,256,42.7C373.8,42.8,469.2,138.2,469.3,256z"/>
<path class="st0" d="M259.3,191c15.6,0,30.7,5.7,42.4,16c7,6.2,13.6,12.2,17.9,16.6l61.3,60.2c8.7,7.9,9.4,21.4,1.5,30.1
	c-7.9,8.7-21.4,9.4-30.1,1.5c-0.4-0.4-0.8-0.8-1.2-1.2l-61.4-60.4c-4-4-10-9.4-16.2-14.9c-8.1-7.1-20.2-7.1-28.2,0
	c-6.2,5.5-12.2,10.9-16,14.8l-61.6,60.5c-8.1,8.6-21.6,9-30.2,0.9c-8.6-8.1-9-21.6-0.9-30.2c0.4-0.4,0.8-0.8,1.2-1.2l61.4-60.4
	c4.3-4.3,10.8-10.2,17.8-16.4C228.6,196.7,243.7,191,259.3,191z"/>
</svg>
